# xmcd CD database file
#
# Track frame offsets:
#	150
#	13638
#	27686
#	41641
#	61101
#	75967
#	91929
#	109671
#	125118
#	141124
#	158271
#	174643
#	189966
#	206393
#	221021
#	232722
#	251493
#	266123
#	278604
#	293824
#	312143
#
# Disc length: 4389 seconds
#
# Revision: 0
# Processed by: cddbd v1.5.2PL0 Copyright (c) Steve Scherf et al.
# Submitted via: CDex 2.15
#
DISCID=17112315
DTITLE=Ed Bruce - Ed Bruce - Girls, Women and Ladies: The Universal Recordings Disc 3
DYEAR=2018
DGENRE=Country
TTITLE0=Ed Bruce - When Wide Open Spaces And Cowboys Are Gone
TTITLE1=Ed Bruce - For Love's Own Sake
TTITLE2=Ed Bruce - July, You're A Woman
TTITLE3=Ed Bruce - Blue Umbrella
TTITLE4=Ed Bruce - It's All In Your Mind
TTITLE5=Ed Bruce - The Songwriter (I Write It Down)
TTITLE6=Ed Bruce - Birds OF Paradise
TTITLE7=Ed Bruce - Thirty-Nine And Holding
TTITLE8=Ed Bruce - Straight Shooter
TTITLE9=Ed Bruce - The Migrant
TTITLE10=Ed Bruce - Love Ain't Something I Can Do Alone
TTITLE11=Ed Bruce - It's The Lovers (Who Give Love A Bad Name)
TTITLE12=Ed Bruce - Your Jukebox Could Use A Few More Sad Songs
TTITLE13=Ed Bruce - Hundred Dollar Lady
TTITLE14=Ed Bruce - Sleep All Mornin'
TTITLE15=Ed Bruce - The Last Thing She Said
TTITLE16=Ed Bruce - If She Just Helps Me Get Over You
TTITLE17=Ed Bruce - Lucky Arms
TTITLE18=Ed Bruce - Mose Rankin
TTITLE19=Ed Bruce - Red Doggin' Again
TTITLE20=Ed Bruce - Mamma's Don't Let Your Babies Grow Up To Be Coyboys (1975 United Artists Version)
EXTD=YEAR: 2018
EXTT0=
EXTT1=
EXTT2=
EXTT3=
EXTT4=
EXTT5=
EXTT6=
EXTT7=
EXTT8=
EXTT9=
EXTT10=
EXTT11=
EXTT12=
EXTT13=
EXTT14=
EXTT15=
EXTT16=
EXTT17=
EXTT18=
EXTT19=
EXTT20=
PLAYORDER=
